<svg xmlns="http://www.w3.org/2000/svg" width="35" height="35" viewBox="0 0 35 35">
  <g id="Bank" transform="translate(-1544 -754)">
    <circle id="Ellipse_5" data-name="Ellipse 5" cx="17.5" cy="17.5" r="17.5" transform="translate(1544 754)" fill="#fff"/>
    <path id="Path_24" data-name="Path 24" d="M56.639,124.87l-7.711-3.449-7.711,3.449v.609H56.639Zm-7.711-.2a1.015,1.015,0,1,1,1.015-1.015A1.015,1.015,0,0,1,48.928,124.667Zm0-3.652-7.711,3.449v-1.015L48.928,120l7.711,3.449v1.015Zm7.711,12.58H41.217v-.812h.609v-.812h.406V126.7h-.406v-.812h2.029v.812h-.406v5.276h.406v.812h2.029v-.812h.406V126.7h-.406v-.812h2.029v.812h-.406v5.276h.406v.812h2.029v-.812h.406V126.7h-.406v-.812h2.029v.812h-.406v5.276h.406v.812H54v-.812h.406V126.7H54v-.812H56.03v.812h-.406v5.276h.406v.812h.609Zm1.217.406v1.217H40V134Z" transform="translate(1513 644)" fill="#f8a462"/>
  </g>
</svg>
