<svg xmlns="http://www.w3.org/2000/svg" width="35" height="35" viewBox="0 0 35 35">
  <g id="Cash_on_Delivery" data-name="Cash on Delivery" transform="translate(-1544 -813)">
    <circle id="Ellipse_6" data-name="Ellipse 6" cx="17.5" cy="17.5" r="17.5" transform="translate(1544 813)" fill="#fff"/>
    <g id="Group_19" data-name="Group 19" transform="translate(1550.52 819.1)">
      <path id="Path_33" data-name="Path 33" d="M21.846,22.972c-.147.147-.294.245-.442.392a20.474,20.474,0,0,1-2.159,1.423,6.569,6.569,0,0,1-2.993.883s-1.962-.049-3.385-.147a2.46,2.46,0,0,0-1.668.392L8.6,23.708l.343-.343a3.709,3.709,0,0,1,3.581-1.079c.442.1.932.294,1.374.392.54.1,1.079.147,1.619.2.343.049,1.962.1,1.815.736a.106.106,0,0,1-.1.1,7.149,7.149,0,0,1-2.453.343c-.1,0-.2.049-.2.147s.049.147.147.2h.1a7.245,7.245,0,0,0,1.03-.049,13.017,13.017,0,0,0,2.8-.736,25.772,25.772,0,0,1,2.7-1.079.573.573,0,0,1,.491,0C22.189,22.58,21.993,22.825,21.846,22.972Z" transform="translate(-2.608 -9.31)" fill="#f8a462"/>
      <path id="Path_34" data-name="Path 34" d="M8.592,27.684,5.4,24.937a.7.7,0,0,0-.981.1l-.785.834a.7.7,0,0,0,.1.981L6.924,29.6a.7.7,0,0,0,.981-.1l.736-.883A.6.6,0,0,0,8.592,27.684Z" transform="translate(0 -10.636)" fill="#f8a462"/>
      <g id="Group_21" data-name="Group 21" transform="translate(6.826 3.9)">
        <path id="Path_35" data-name="Path 35" d="M21.24,3.9H11.085a.775.775,0,0,0-.785.785V9.738a.775.775,0,0,0,.785.785H21.24a.775.775,0,0,0,.785-.785v-5A.759.759,0,0,0,21.24,3.9Zm.049,4.17a.387.387,0,0,1-.392.392h0a1.049,1.049,0,0,0-.981,1.226c.049.147,0,.147-.147.147H12.557a.13.13,0,0,1-.147-.147,1.013,1.013,0,0,0-.883-1.226h-.1a.422.422,0,0,1-.392-.392V6.4a.387.387,0,0,1,.392-.392h.1a1.013,1.013,0,0,0,.883-1.226c-.049-.147,0-.147.147-.147h7.212c.147,0,.147,0,.147.147A1.049,1.049,0,0,0,20.9,6.01h0a.422.422,0,0,1,.392.392Z" transform="translate(-10.3 -3.9)" fill="#f8a462"/>
        <path id="Path_36" data-name="Path 36" d="M20.11,6.5a2.11,2.11,0,1,0,2.11,2.11A2.125,2.125,0,0,0,20.11,6.5Zm.981,1.423h-.54a.54.54,0,0,0-.491-.294.446.446,0,0,0-.392.2.3.3,0,0,0,.049.392c.2.245.54.245.834.343a1.068,1.068,0,0,1,.392.245.692.692,0,0,1,.049.687.918.918,0,0,1-.687.491h-.049v.2a.106.106,0,0,1-.1.1h-.147a.106.106,0,0,1-.1-.1v-.2h-.049A1,1,0,0,1,19.03,9.3c0-.049,0-.049.049-.049h.392a.048.048,0,0,1,.049.049.605.605,0,0,0,.883.245.3.3,0,0,0,.049-.392.937.937,0,0,0-.687-.343,1.089,1.089,0,0,1-.54-.245.738.738,0,0,1-.2-.54.651.651,0,0,1,.294-.491.67.67,0,0,1,.491-.294c.049,0,.049,0,.049-.049V7.04a.106.106,0,0,1,.1-.1h.147a.106.106,0,0,1,.1.1v.2h.049a.858.858,0,0,1,.687.343c.049.1.147.2.2.294A.048.048,0,0,1,21.091,7.923Z" transform="translate(-14.222 -5.224)" fill="#f8a462"/>
      </g>
    </g>
  </g>
</svg>
