<svg xmlns="http://www.w3.org/2000/svg" xmlns:xlink="http://www.w3.org/1999/xlink" width="271" height="67" viewBox="0 0 271 67">
  <defs>
    <linearGradient id="linear-gradient" x1="0.5" x2="0.5" y2="1" gradientUnits="objectBoundingBox">
      <stop offset="0" stop-color="#8091a5" stop-opacity="0.255"/>
      <stop offset="1" stop-color="#8091a5" stop-opacity="0.255"/>
    </linearGradient>
  </defs>
  <g id="More" transform="translate(-1183.34 -821.522)">
    <g id="Rectangle_5" data-name="Rectangle 5" transform="translate(1183.34 821.522)" fill="none" stroke="rgba(128,145,165,0.25)" stroke-width="0.5">
      <rect width="271" height="67" rx="2" stroke="none"/>
      <rect x="0.25" y="0.25" width="270.5" height="66.5" rx="1.75" fill="none"/>
    </g>
    <path id="Rectangle_6" data-name="Rectangle 6" d="M2,0H269a2,2,0,0,1,2,2V21.5a0,0,0,0,1,0,0H0a0,0,0,0,1,0,0V2A2,2,0,0,1,2,0Z" transform="translate(1183.34 821.522)" fill="url(#linear-gradient)"/>
    <text id="Week" transform="translate(1206.84 858.522)" fill="#2d3039" font-size="10" font-family="Poppins-SemiBold, Poppins" font-weight="600"><tspan x="0" y="11">7,88,623</tspan></text>
    <text id="Week-2" data-name="Week" transform="translate(1283.84 858.522)" fill="#2d3039" font-size="10" font-family="Poppins-SemiBold, Poppins" font-weight="600"><tspan x="0" y="11">5,41,738</tspan></text>
    <text id="Week-3" data-name="Week" transform="translate(1342 859.522)" fill="#2d3039" font-size="10" font-family="Poppins-SemiBold, Poppins" font-weight="600"><tspan x="-20" y="11">2,37,622</tspan></text>
    <text id="Week-4" data-name="Week" transform="translate(1403.84 858.522)" fill="#2d3039" font-size="10" font-family="Poppins-SemiBold, Poppins" font-weight="600"><tspan x="-18" y="11">3,04,116</tspan></text>
    <text id="Week-5" data-name="Week" transform="translate(1202.84 824.522)" fill="#2d3039" font-size="10" font-family="Poppins-Medium, Poppins" font-weight="500"><tspan x="0" y="11">Total Visit</tspan></text>
    <text id="Week-6" data-name="Week" transform="translate(1280.84 824.522)" fill="#2d3039" font-size="10" font-family="Poppins-Medium, Poppins" font-weight="500"><tspan x="0" y="11">Ordered</tspan></text>
    <text id="Week-7" data-name="Week" transform="translate(1341 824.522)" fill="#2d3039" font-size="10" font-family="Poppins-Medium, Poppins" font-weight="500"><tspan x="0" y="11">Pending</tspan></text>
    <text id="Week-8" data-name="Week" transform="translate(1397.84 824.522)" fill="#2d3039" font-size="10" font-family="Poppins-Medium, Poppins" font-weight="500"><tspan x="0" y="11">Delivered</tspan></text>
    <line id="Line_4" data-name="Line 4" y2="66" transform="translate(1273.34 822.022)" fill="none" stroke="rgba(128,145,165,0.25)" stroke-width="0.5"/>
    <line id="Line_7" data-name="Line 7" y2="66" transform="translate(1333.34 822.022)" fill="none" stroke="rgba(128,145,165,0.25)" stroke-width="0.5"/>
    <line id="Line_8" data-name="Line 8" y2="66" transform="translate(1391.34 822.022)" fill="none" stroke="rgba(128,145,165,0.25)" stroke-width="0.5"/>
  </g>
</svg>
